<svg width="375" height="812" viewBox="0 0 375 812" fill="none" xmlns="http://www.w3.org/2000/svg">
<!-- 背景 -->
<rect width="375" height="812" fill="#F5F7FA"/>

<!-- 顶部导航栏 -->
<rect width="375" height="44" fill="#FFFFFF" stroke="#E5E6EB"/>
<path d="M24 22 L14 22 L19 17 L14 22 L19 27" stroke="#1D2129" stroke-width="2" fill="none" stroke-linecap="round" stroke-linejoin="round"/>
<text x="56" y="28" font-family="PingFang SC" font-size="17" font-weight="500" fill="#1D2129">审计日志</text>
<text x="280" y="28" font-family="PingFang SC" font-size="15" fill="#165DFF">筛选</text>
<path d="M319 22 L331 22" stroke="#1D2129" stroke-width="2" stroke-linecap="round"/>
<circle cx="325" cy="16" r="2" fill="#1D2129"/>
<circle cx="325" cy="28" r="2" fill="#1D2129"/>

<!-- 筛选区域 -->
<rect x="16" y="68" width="343" height="40" fill="#FFFFFF" rx="8" stroke="#E5E6EB"/>
<text x="28" y="93" font-family="PingFang SC" font-size="14" fill="#4E5969">⏰ 近7天</text>
<rect x="120" y="74" width="1" height="28" fill="#E5E6EB"/>
<text x="136" y="93" font-family="PingFang SC" font-size="14" fill="#4E5969">📂 全部类型</text>

<!-- 日志列表 -->
<rect x="16" y="124" width="343" height="600" fill="#FFFFFF" rx="12"/>
<rect x="28" y="150" width="319" height="1" fill="#F2F3F5"/>
<text x="28" y="174" font-family="PingFang SC" font-size="13" fill="#86909C">10:30:15</text>
<text x="108" y="174" font-family="PingFang SC" font-size="15" fill="#1D2129">创建项目</text>
<text x="294" y="174" font-family="PingFang SC" font-size="18" fill="#00B42A">✅</text>
<text x="108" y="198" font-family="PingFang SC" font-size="13" fill="#86909C">操作人：管理Agent  对象：项目A</text>
<rect x="28" y="210" width="319" height="1" fill="#F2F3F5"/>
<text x="28" y="234" font-family="PingFang SC" font-size="13" fill="#86909C">10:25:30</text>
<text x="108" y="234" font-family="PingFang SC" font-size="15" fill="#1D2129">任务分配</text>
<text x="294" y="234" font-family="PingFang SC" font-size="18" fill="#00B42A">✅</text>
<text x="108" y="258" font-family="PingFang SC" font-size="13" fill="#86909C">操作人：产品Agent  对象：任务X</text>
<rect x="28" y="270" width="319" height="1" fill="#F2F3F5"/>
<text x="28" y="294" font-family="PingFang SC" font-size="13" fill="#86909C">10:20:45</text>
<text x="108" y="294" font-family="PingFang SC" font-size="15" fill="#1D2129">状态变更</text>
<text x="294" y="294" font-family="PingFang SC" font-size="18" fill="#FF7D00">⚠️</text>
<text x="108" y="318" font-family="PingFang SC" font-size="13" fill="#86909C">操作人：开发Agent  对象：任务Y</text>
<rect x="28" y="330" width="319" height="1" fill="#F2F3F5"/>
<text x="28" y="354" font-family="PingFang SC" font-size="13" fill="#86909C">10:10:05</text>
<text x="108" y="354" font-family="PingFang SC" font-size="15" fill="#1D2129">删除任务</text>
<text x="294" y="354" font-family="PingFang SC" font-size="18" fill="#F53F3F">❌</text>
<text x="108" y="378" font-family="PingFang SC" font-size="13" fill="#86909C">操作人：管理Agent  对象：任务Z</text>
<rect x="28" y="390" width="319" height="1" fill="#F2F3F5"/>
<text x="28" y="414" font-family="PingFang SC" font-size="13" fill="#86909C">09:55:20</text>
<text x="108" y="414" font-family="PingFang SC" font-size="15" fill="#1D2129">上传交付物</text>
<text x="294" y="414" font-family="PingFang SC" font-size="18" fill="#00B42A">✅</text>
<text x="108" y="438" font-family="PingFang SC" font-size="13" fill="#86909C">操作人：开发Agent  对象：任务A</text>
<rect x="28" y="450" width="319" height="1" fill="#F2F3F5"/>
<text x="28" y="474" font-family="PingFang SC" font-size="13" fill="#86909C">09:42:18</text>
<text x="108" y="474" font-family="PingFang SC" font-size="15" fill="#1D2129">创建用户</text>
<text x="294" y="474" font-family="PingFang SC" font-size="18" fill="#00B42A">✅</text>
<text x="108" y="498" font-family="PingFang SC" font-size="13" fill="#86909C">操作人：系统管理员  对象：用户B</text>
<rect x="28" y="510" width="319" height="1" fill="#F2F3F5"/>
<text x="28" y="534" font-family="PingFang SC" font-size="13" fill="#86909C">09:30:05</text>
<text x="108" y="534" font-family="PingFang SC" font-size="15" fill="#1D2129">修改配置</text>
<text x="294" y="534" font-family="PingFang SC" font-size="18" fill="#00B42A">✅</text>
<text x="108" y="558" font-family="PingFang SC" font-size="13" fill="#86909C">操作人：运维Agent  对象：系统配置</text>

<!-- 底部导航 -->
<rect y="763" width="375" height="49" fill="#FFFFFF" stroke="#E5E6EB"/>
<text x="36" y="790" font-family="PingFang SC" font-size="11" fill="#86909C">🏠 首页</text>
<text x="118" y="790" font-family="PingFang SC" font-size="11" fill="#86909C">📁 项目</text>
<text x="200" y="790" font-family="PingFang SC" font-size="11" fill="#86909C">📋 任务</text>
<text x="294" y="790" font-family="PingFang SC" font-size="11" fill="#165DFF">👤 我的</text>
</svg>
