<svg width="375" height="812" viewBox="0 0 375 812" fill="none" xmlns="http://www.w3.org/2000/svg">
<!-- 背景 -->
<rect width="375" height="812" fill="#F5F7FA"/>

<!-- 顶部导航栏 -->
<rect width="375" height="44" fill="#FFFFFF" stroke="#E5E6EB"/>
<circle cx="28" cy="22" r="14" fill="#165DFF"/>
<text x="52" y="28" font-family="PingFang SC" font-size="17" font-weight="500" fill="#1D2129">仪表盘</text>
<path d="M319 22 L331 22" stroke="#1D2129" stroke-width="2" stroke-linecap="round"/>
<circle cx="325" cy="16" r="2" fill="#1D2129"/>
<circle cx="325" cy="28" r="2" fill="#1D2129"/>
<path d="M347 22 L359 22" stroke="#1D2129" stroke-width="2" stroke-linecap="round"/>
<circle cx="353" cy="16" r="2" fill="#F53F3F"/>
<circle cx="353" cy="28" r="2" fill="#1D2129"/>

<!-- 统计卡片区域 -->
<rect x="16" y="68" width="343" height="96" fill="#FFFFFF" rx="12"/>
<text x="28" y="94" font-family="PingFang SC" font-size="14" fill="#86909C">活跃项目</text>
<text x="28" y="120" font-family="PingFang SC" font-size="24" font-weight="600" fill="#1D2129">24</text>
<rect x="104" y="68" width="1" height="96" fill="#E5E6EB"/>
<text x="118" y="94" font-family="PingFang SC" font-size="14" fill="#86909C">待验收</text>
<text x="118" y="120" font-family="PingFang SC" font-size="24" font-weight="600" fill="#FF7D00">8</text>
<rect x="192" y="68" width="1" height="96" fill="#E5E6EB"/>
<text x="206" y="94" font-family="PingFang SC" font-size="14" fill="#86909C">阻塞</text>
<text x="206" y="120" font-family="PingFang SC" font-size="24" font-weight="600" fill="#F53F3F">3</text>
<rect x="280" y="68" width="1" height="96" fill="#E5E6EB"/>
<text x="294" y="94" font-family="PingFang SC" font-size="14" fill="#86909C">平均周期</text>
<text x="294" y="120" font-family="PingFang SC" font-size="24" font-weight="600" fill="#00B42A">5.2天</text>

<!-- 风险预警区域 -->
<rect x="16" y="180" width="343" height="100" fill="#FFFFFF" rx="12"/>
<text x="28" y="206" font-family="PingFang SC" font-size="16" font-weight="500" fill="#1D2129">⚠️ 风险预警 (3)</text>
<rect x="28" y="220" width="319" height="32" fill="#FFF1F0" rx="6"/>
<text x="40" y="241" font-family="PingFang SC" font-size="14" fill="#F53F3F">项目A  逾期2天</text>
<rect x="28" y="258" width="319" height="32" fill="#FFF7E8" rx="6"/>
<text x="40" y="279" font-family="PingFang SC" font-size="14" fill="#FF7D00">任务B  阻塞1天</text>

<!-- 最近项目进度 -->
<rect x="16" y="300" width="343" height="140" fill="#FFFFFF" rx="12"/>
<text x="28" y="326" font-family="PingFang SC" font-size="16" font-weight="500" fill="#1D2129">📊 最近项目进度</text>
<text x="28" y="354" font-family="PingFang SC" font-size="14" fill="#1D2129">项目A</text>
<rect x="28" y="364" width="319" height="8" fill="#F2F3F5" rx="4"/>
<rect x="28" y="364" width="271" height="8" fill="#165DFF" rx="4"/>
<text x="282" y="354" font-family="PingFang SC" font-size="14" font-weight="500" fill="#165DFF">85%</text>
<text x="28" y="388" font-family="PingFang SC" font-size="14" fill="#1D2129">项目B</text>
<rect x="28" y="398" width="319" height="8" fill="#F2F3F5" rx="4"/>
<rect x="28" y="398" width="134" height="8" fill="#165DFF" rx="4"/>
<text x="290" y="388" font-family="PingFang SC" font-size="14" font-weight="500" fill="#165DFF">42%</text>
<text x="28" y="422" font-family="PingFang SC" font-size="14" fill="#1D2129">项目C</text>
<rect x="28" y="432" width="319" height="8" fill="#F2F3F5" rx="4"/>
<rect x="28" y="432" width="80" height="8" fill="#165DFF" rx="4"/>
<text x="290" y="422" font-family="PingFang SC" font-size="14" font-weight="500" fill="#165DFF">25%</text>

<!-- 待办任务 -->
<rect x="16" y="460" width="343" height="180" fill="#FFFFFF" rx="12"/>
<text x="28" y="486" font-family="PingFang SC" font-size="16" font-weight="500" fill="#1D2129">📋 待办任务 (5)</text>
<rect x="28" y="506" width="18" height="18" rx="3" stroke="#C9CDD4" fill="#FFFFFF"/>
<text x="56" y="521" font-family="PingFang SC" font-size="14" fill="#1D2129">任务A - 系统设计  03-15截止</text>
<rect x="28" y="540" width="18" height="18" rx="3" stroke="#C9CDD4" fill="#FFFFFF"/>
<text x="56" y="555" font-family="PingFang SC" font-size="14" fill="#1D2129">任务B - 接口开发  03-18截止</text>
<rect x="28" y="574" width="18" height="18" rx="3" stroke="#C9CDD4" fill="#FFFFFF"/>
<text x="56" y="589" font-family="PingFang SC" font-size="14" fill="#1D2129">任务C - 测试用例  03-20截止</text>
<rect x="28" y="608" width="18" height="18" rx="3" stroke="#C9CDD4" fill="#FFFFFF"/>
<text x="56" y="623" font-family="PingFang SC" font-size="14" fill="#1D2129">任务D - 部署上线  03-22截止</text>

<!-- 底部导航 -->
<rect y="763" width="375" height="49" fill="#FFFFFF" stroke="#E5E6EB"/>
<text x="36" y="790" font-family="PingFang SC" font-size="11" fill="#165DFF">🏠 首页</text>
<text x="118" y="790" font-family="PingFang SC" font-size="11" fill="#86909C">📁 项目</text>
<text x="200" y="790" font-family="PingFang SC" font-size="11" fill="#86909C">📋 任务</text>
<text x="294" y="790" font-family="PingFang SC" font-size="11" fill="#86909C">👤 我的</text>
</svg>
