<svg xmlns="http://www.w3.org/2000/svg" width="1440" height="900" viewBox="0 0 1440 900">
  <rect width="1440" height="900" fill="#ffffff" />
  <text x="20" y="40" font-family="Inter, Arial" font-size="28" font-weight="700" fill="#1e293b">OpenClaw AI项目管理系统 - 项目详情</text>
  
  <!-- 操作栏 -->
  <rect x="20" y="60" width="1400" height="60" fill="#f8fafc" rx="6"/>
  <text x="40" y="95" font-family="Inter, Arial" font-size="14" fill="#64748b">项目：电商平台重构</text>
  <rect x="240" y="75" width="80" height="30" fill="#2563eb" rx="4"/>
  <text x="247" y="94" font-family="Inter, Arial" font-size="12" fill="#ffffff">编辑</text>
  <rect x="340" y="75" width="80" height="30" fill="#10b981" rx="4"/>
  <text x="347" y="94" font-family="Inter, Arial" font-size="12" fill="#ffffff">归档</text>
  <rect x="440" y="75" width="80" height="30" fill="#ef4444" rx="4"/>
  <text x="447" y="94" font-family="Inter, Arial" font-size="12" fill="#ffffff">删除</text>
  
  <!-- 项目信息 -->
  <rect x="20" y="140" width="600" height="200" fill="#f8fafc" rx="8"/>
  <text x="40" y="170" font-family="Inter, Arial" font-size="16" font-weight="600" fill="#1e293b">项目信息</text>
  <text x="40" y="195" font-family="Inter, Arial" font-size="12" fill="#64748b">负责人：产品Agent</text>
  <text x="40" y="220" font-family="Inter, Arial" font-size="12" fill="#64748b">周期：2026-03-12 至 2026-04-12</text>
  <text x="40" y="245" font-family="Inter, Arial" font-size="12" fill="#64748b">优先级：P0</text>
  <text x="40" y="270" font-family="Inter, Arial" font-size="12" fill="#64748b">状态：进行中</text>
  <rect x="40" y="275" width="240" height="8" fill="#e2e8f0" rx="4"/>
  <rect x="40" y="275" width="204" height="8" fill="#2563eb" rx="4"/>
  <text x="40" y="300" font-family="Inter, Arial" font-size="12" fill="#64748b">进度：85%</text>
  
  <!-- 任务列表 -->
  <rect x="20" y="360" width="600" height="400" fill="#f8fafc" rx="8"/>
  <text x="40" y="390" font-family="Inter, Arial" font-size="16" font-weight="600" fill="#1e293b">任务列表</text>
  <rect x="40" y="410" width="520" height="340" fill="#ffffff" rx="4" stroke="#e2e8f0" stroke-width="1"/>
  
  <!-- 任务行 -->
  <text x="50" y="440" font-family="Inter, Arial" font-size="12" font-weight="600" fill="#1e293b">任务名称</text>
  <text x="250" y="440" font-family="Inter, Arial" font-size="12" font-weight="600" fill="#1e293b">负责人</text>
  <text x="350" y="440" font-family="Inter, Arial" font-size="12" font-weight="600" fill="#1e293b">状态</text>
  <text x="450" y="440" font-family="Inter, Arial" font-size="12" font-weight="600" fill="#1e293b">截止日期</text>
  
  <rect x="50" y="460" width="490" height="1" fill="#e2e8f0"/>
  
  <text x="50" y="490" font-family="Inter, Arial" font-size="12" fill="#64748b">需求分析</text>
  <text x="250" y="490" font-family="Inter, Arial" font-size="12" fill="#64748b">产品Agent</text>
  <rect x="350" y="480" width="80" height="20" fill="#f8fafc" rx="4"/>
  <text x="360" y="493" font-family="Inter, Arial" font-size="10" fill="#64748b">待分配</text>
  <text x="450" y="490" font-family="Inter, Arial" font-size="12" fill="#64748b">03-15</text>
  
  <text x="50" y="520" font-family="Inter, Arial" font-size="12" fill="#64748b">系统设计</text>
  <text x="250" y="520" font-family="Inter, Arial" font-size="12" fill="#64748b">设计Agent</text>
  <rect x="350" y="510" width="80" height="20" fill="#dbeafe" rx="4"/>
  <text x="360" y="523" font-family="Inter, Arial" font-size="10" fill="#1d4ed8">进行中</text>
  <text x="450" y="520" font-family="Inter, Arial" font-size="12" fill="#64748b">03-20</text>
  
  <text x="50" y="550" font-family="Inter, Arial" font-size="12" fill="#64748b">后端开发</text>
  <text x="250" y="550" font-family="Inter, Arial" font-size="12" fill="#64748b">开发Agent</text>
  <rect x="350" y="540" width="80" height="20" fill="#fef3c7" rx="4"/>
  <text x="360" y="553" font-family="Inter, Arial" font-size="10" fill="#d97706">阻塞</text>
  <text x="450" y="550" font-family="Inter, Arial" font-size="12" fill="#64748b">03-25</text>
  
  <text x="50" y="580" font-family="Inter, Arial" font-size="12" fill="#64748b">前端开发</text>
  <text x="250" y="580" font-family="Inter, Arial" font-size="12" fill="#64748b">前端Agent</text>
  <rect x="350" y="570" width="80" height="20" fill="#dbeafe" rx="4"/>
  <text x="360" y="583" font-family="Inter, Arial" font-size="10" fill="#1d4ed8">进行中</text>
  <text x="450" y="580" font-family="Inter, Arial" font-size="12" fill="#64748b">03-30</text>
  
  <!-- 甘特图 -->
  <rect x="640" y="140" width="780" height="520" fill="#f8fafc" rx="8"/>
  <text x="660" y="170" font-family="Inter, Arial" font-size="16" font-weight="600" fill="#1e293b">项目进度（甘特图）</text>
  <rect x="660" y="185" width="740" height="485" fill="#ffffff" rx="4" stroke="#e2e8f0" stroke-width="1"/>
  <text x="670" y="210" font-family="Inter, Arial" font-size="12" fill="#64748b">2026-03-12</text>
  <text x="770" y="210" font-family="Inter, Arial" font-size="12" fill="#64748b">03-15</text>
  <text x="870" y="210" font-family="Inter, Arial" font-size="12" fill="#64748b">03-20</text>
  <text x="970" y="210" font-family="Inter, Arial" font-size="12" fill="#64748b">03-25</text>
  <text x="1070" y="210" font-family="Inter, Arial" font-size="12" fill="#64748b">03-30</text>
  <text x="1170" y="210" font-family="Inter, Arial" font-size="12" fill="#64748b">04-05</text>
  <text x="1270" y="210" font-family="Inter, Arial" font-size="12" fill="#64748b">04-10</text>
  
  <!-- 任务条 -->
  <rect x="670" y="230" width="180" height="20" fill="#2563eb" rx="2"/>
  <text x="677" y="244" font-family="Inter, Arial" font-size="10" fill="#ffffff">需求分析</text>
  
  <rect x="870" y="260" width="180" height="20" fill="#2563eb" rx="2"/>
  <text x="877" y="274" font-family="Inter, Arial" font-size="10" fill="#ffffff">系统设计</text>
  
  <rect x="1070" y="290" width="180" height="20" fill="#f59e0b" rx="2"/>
  <text x="1077" y="304" font-family="Inter, Arial" font-size="10" fill="#ffffff">后端开发</text>
  
  <rect x="670" y="320" width="380" height="20" fill="#2563eb" rx="2"/>
  <text x="677" y="334" font-family="Inter, Arial" font-size="10" fill="#ffffff">前端开发</text>
  
  <rect x="1070" y="350" width="180" height="20" fill="#10b981" rx="2"/>
  <text x="1077" y="364" font-family="Inter, Arial" font-size="10" fill="#ffffff">测试</text>
</svg>
