<svg xmlns="http://www.w3.org/2000/svg" width="1440" height="900" viewBox="0 0 1440 900">
  <rect width="1440" height="900" fill="#ffffff" />
  <text x="20" y="40" font-family="Inter, Arial" font-size="28" font-weight="700" fill="#1e293b">OpenClaw AI项目管理系统 - 项目管理</text>
  
  <!-- 顶部操作栏 -->
  <rect x="20" y="60" width="1400" height="60" fill="#f8fafc" rx="6"/>
  <rect x="40" y="75" width="200" height="30" fill="#ffffff" rx="4" stroke="#e2e8f0" stroke-width="1"/>
  <text x="50" y="94" font-family="Inter, Arial" font-size="12" fill="#94a3b8">搜索项目名称...</text>
  <rect x="260" y="75" width="80" height="30" fill="#e2e8f0" rx="4"/>
  <text x="270" y="94" font-family="Inter, Arial" font-size="12" fill="#64748b">筛选</text>
  <rect x="360" y="75" width="80" height="30" fill="#e2e8f0" rx="4"/>
  <text x="370" y="94" font-family="Inter, Arial" font-size="12" fill="#64748b">网格视图</text>
  <rect x="460" y="75" width="100" height="30" fill="#2563eb" rx="4"/>
  <text x="470" y="94" font-family="Inter, Arial" font-size="12" fill="#ffffff">创建项目</text>
  
  <!-- 项目列表 -->
  <rect x="20" y="140" width="300" height="180" fill="#ffffff" rx="8" stroke="#e2e8f0" stroke-width="1"/>
  <text x="35" y="170" font-family="Inter, Arial" font-size="16" font-weight="600" fill="#1e293b">项目A - 电商平台重构</text>
  <text x="35" y="190" font-family="Inter, Arial" font-size="12" fill="#64748b">负责人: 产品Agent</text>
  <text x="35" y="210" font-family="Inter, Arial" font-size="12" fill="#64748b">优先级: P0</text>
  <rect x="35" y="225" width="240" height="8" fill="#e2e8f0" rx="4"/>
  <rect x="35" y="225" width="204" height="8" fill="#2563eb" rx="4"/>
  <text x="35" y="245" font-family="Inter, Arial" font-size="12" fill="#64748b">进度: 85%</text>
  <text x="35" y="265" font-family="Inter, Arial" font-size="12" fill="#64748b">任务: 24/3/12/9</text>
  <rect x="35" y="275" width="60" height="24" fill="#2563eb" rx="4"/>
  <text x="42" y="291" font-family="Inter, Arial" font-size="10" fill="#ffffff">详情</text>
  <rect x="105" y="275" width="60" height="24" fill="#e2e8f0" rx="4"/>
  <text x="112" y="291" font-family="Inter, Arial" font-size="10" fill="#64748b">编辑</text>
  <rect x="175" y="275" width="60" height="24" fill="#e2e8f0" rx="4"/>
  <text x="182" y="291" font-family="Inter, Arial" font-size="10" fill="#64748b">归档</text>
  
  <rect x="340" y="140" width="300" height="180" fill="#ffffff" rx="8" stroke="#e2e8f0" stroke-width="1"/>
  <text x="355" y="170" font-family="Inter, Arial" font-size="16" font-weight="600" fill="#1e293b">项目B - AI分析工具</text>
  <text x="355" y="190" font-family="Inter, Arial" font-size="12" fill="#64748b">负责人: 开发Agent</text>
  <text x="355" y="210" font-family="Inter, Arial" font-size="12" fill="#64748b">优先级: P1</text>
  <rect x="355" y="225" width="240" height="8" fill="#e2e8f0" rx="4"/>
  <rect x="355" y="225" width="101" height="8" fill="#2563eb" rx="4"/>
  <text x="355" y="245" font-family="Inter, Arial" font-size="12" fill="#64748b">进度: 42%</text>
  <text x="355" y="265" font-family="Inter, Arial" font-size="12" fill="#64748b">任务: 18/5/8/5</text>
  <rect x="355" y="275" width="60" height="24" fill="#2563eb" rx="4"/>
  <text x="362" y="291" font-family="Inter, Arial" font-size="10" fill="#ffffff">详情</text>
  <rect x="425" y="275" width="60" height="24" fill="#e2e8f0" rx="4"/>
  <text x="432" y="291" font-family="Inter, Arial" font-size="10" fill="#64748b">编辑</text>
  <rect x="495" y="275" width="60" height="24" fill="#e2e8f0" rx="4"/>
  <text x="502" y="291" font-family="Inter, Arial" font-size="10" fill="#64748b">归档</text>
  
  <rect x="660" y="140" width="300" height="180" fill="#ffffff" rx="8" stroke="#e2e8f0" stroke-width="1"/>
  <text x="675" y="170" font-family="Inter, Arial" font-size="16" font-weight="600" fill="#1e293b">项目C - 用户画像系统</text>
  <text x="675" y="190" font-family="Inter, Arial" font-size="12" fill="#64748b">负责人: 测试Agent</text>
  <text x="675" y="210" font-family="Inter, Arial" font-size="12" fill="#64748b">优先级: P2</text>
  <rect x="675" y="225" width="240" height="8" fill="#e2e8f0" rx="4"/>
  <rect x="675" y="225" width="60" height="8" fill="#2563eb" rx="4"/>
  <text x="675" y="245" font-family="Inter, Arial" font-size="12" fill="#64748b">进度: 25%</text>
  <text x="675" y="265" font-family="Inter, Arial" font-size="12" fill="#64748b">任务: 12/8/4/0</text>
  <rect x="675" y="275" width="60" height="24" fill="#2563eb" rx="4"/>
  <text x="682" y="291" font-family="Inter, Arial" font-size="10" fill="#ffffff">详情</text>
  <rect x="745" y="275" width="60" height="24" fill="#e2e8f0" rx="4"/>
  <text x="752" y="291" font-family="Inter, Arial" font-size="10" fill="#64748b">编辑</text>
  <rect x="815" y="275" width="60" height="24" fill="#e2e8f0" rx="4"/>
  <text x="822" y="291" font-family="Inter, Arial" font-size="10" fill="#64748b">归档</text>
  
  <!-- 分页 -->
  <rect x="20" y="340" width="1400" height="60" fill="#f8fafc" rx="6"/>
  <text x="40" y="365" font-family="Inter, Arial" font-size="12" fill="#64748b">显示第1-12项，共35项</text>
  <rect x="600" y="345" width="30" height="28" fill="#2563eb" rx="4"/>
  <text x="606" y="363" font-family="Inter, Arial" font-size="12" fill="#ffffff">1</text>
  <rect x="640" y="345" width="30" height="28" fill="#e2e8f0" rx="4"/>
  <text x="646" y="363" font-family="Inter, Arial" font-size="12" fill="#64748b">2</text>
  <rect x="680" y="345" width="30" height="28" fill="#e2e8f0" rx="4"/>
  <text x="686" y="363" font-family="Inter, Arial" font-size="12" fill="#64748b">3</text>
  <text x="720" y="363" font-family="Inter, Arial" font-size="12" fill="#64748b">...</text>
  <rect x="750" y="345" width="30" height="28" fill="#e2e8f0" rx="4"/>
  <text x="756" y="363" font-family="Inter, Arial" font-size="12" fill="#64748b">末页</text>
  
  <!-- 列表视图开关 -->
  <rect x="1200" y="345" width="60" height="28" fill="#e2e8f0" rx="4"/>
  <text x="1206" y="363" font-family="Inter, Arial" font-size="12" fill="#64748b">列表</text>
  <rect x="1270" y="345" width="60" height="28" fill="#2563eb" rx="4"/>
  <text x="1276" y="363" font-family="Inter, Arial" font-size="12" fill="#ffffff">网格</text>
</svg>
